<svg width="180" height="126" viewBox="0 0 180 126" fill="none" xmlns="http://www.w3.org/2000/svg">
<path d="M53.4297 104.716C54.3204 106.215 55.5868 107.008 57.2584 107.135C59.293 107.287 61.1082 106.599 62.7544 105.501C63.8773 104.754 64.8946 103.851 65.933 102.99C66.0934 102.855 66.2032 102.568 66.2032 102.348C66.2201 98.9247 66.2159 95.5055 66.2159 92.0821C66.2159 91.1618 66.5282 90.7482 67.4316 90.6469C69.3185 90.4316 71.1083 90.7271 72.7208 91.7908C72.9234 91.9259 73.0712 91.9723 73.3118 91.833C75.9036 90.3218 78.715 89.9124 81.6572 90.229C83.4428 90.4189 85.1144 90.9381 86.6087 91.9681C86.7184 92.0441 86.9759 92.0188 87.1068 91.9428C90.8553 89.7942 94.7853 89.5325 98.787 91.0099C101.349 91.9555 103.072 93.8044 103.646 96.5608C103.747 97.0378 103.772 97.5359 103.772 98.0256C103.785 101.12 103.777 104.214 103.777 107.308C103.777 108.034 103.983 108.199 104.671 107.958C105.976 107.498 107.027 106.65 108.023 105.725C108.099 105.653 108.078 105.404 108.023 105.269C107.061 102.817 106.942 100.33 107.867 97.861C109.319 93.9901 112.194 91.6009 116.119 90.5835C120.556 89.4354 124.617 90.3429 128.125 93.3569C132.76 97.3375 133.021 104.412 128.72 108.726C123.903 113.556 116.027 113.813 110.906 109.309C110.425 108.887 109.927 108.486 109.454 108.093C108.812 108.693 108.07 109.482 107.229 110.157C105.402 111.631 103.35 112.568 100.936 112.504C97.1914 112.412 94.2745 109.453 94.2576 105.704C94.2449 102.863 94.2576 100.022 94.2576 97.1771C94.2576 96.1303 94.1647 95.0961 93.7173 94.1294C92.9152 92.3902 91.3069 92.2847 89.9646 92.8715C89.8633 92.9137 89.7957 93.0825 89.7578 93.2049C89.724 93.3147 89.7493 93.4413 89.7493 93.5595C89.7493 99.1822 89.7493 104.809 89.7493 110.432C89.7493 111.512 89.4918 111.859 88.4112 111.985C84.553 112.437 81.1506 110.36 80.3824 106.688C80.281 106.198 80.2431 105.683 80.2388 105.181C80.2262 102.475 80.2346 99.7648 80.2304 97.0589C80.2304 96.0247 80.1206 95.0074 79.6563 94.0618C78.7952 92.31 77.1742 92.3269 75.9078 92.8799C75.8065 92.9263 75.7221 93.1332 75.7179 93.2682C75.701 94.0407 75.7094 94.8174 75.7094 95.5899C75.7094 100.558 75.7094 105.527 75.7094 110.499C75.7094 111.496 75.4351 111.85 74.4473 111.977C70.9985 112.416 67.3809 110.791 66.2454 106.726C66.1652 106.865 66.1061 107.021 65.9964 107.135C63.7718 109.499 61.1757 111.285 57.9844 112.07C54.9578 112.817 51.9945 112.69 49.1747 111.234C43.1805 108.144 41.2725 100.322 45.2194 94.8639C47.9083 91.1407 51.6483 89.7435 56.1355 90.2332C58.3981 90.478 60.4159 91.3349 62.0579 92.9559C64.616 95.4844 64.2319 98.7348 62.2394 101.056C60.7029 102.85 58.6472 103.754 56.4015 104.256C55.5614 104.442 54.7003 104.518 53.8476 104.645C53.721 104.661 53.5943 104.683 53.4213 104.712L53.4297 104.716ZM116.761 101.234C116.791 103.116 116.921 104.936 117.373 106.721C117.622 107.705 117.913 108.676 118.585 109.469C119.176 110.166 119.868 110.2 120.425 109.482C120.818 108.976 121.134 108.38 121.362 107.777C121.919 106.291 122.135 104.729 122.232 103.15C122.396 100.465 122.304 97.7934 121.472 95.2058C121.236 94.4713 120.86 93.7537 120.404 93.1247C119.893 92.4198 119.133 92.4493 118.606 93.1501C118.243 93.6271 117.947 94.18 117.736 94.7415C116.955 96.8479 116.808 99.0598 116.757 101.23L116.761 101.234ZM52.539 102.099C55.5952 101.529 57.7945 98.0467 57.0515 95.0201C56.8489 94.1969 56.5154 93.4413 55.802 92.9221C55.0929 92.4071 54.4639 92.4747 53.932 93.1585C53.6956 93.4582 53.5057 93.8043 53.3495 94.1505C52.7627 95.4506 52.539 96.8437 52.3786 98.2493C52.2351 99.5284 52.3153 100.799 52.5348 102.099H52.539Z" fill="#E1CBB3"/>
<path d="M14.4807 92.7195C12.9315 92.4452 11.8551 93.1037 11.0235 94.1801C9.32657 96.3751 8.77781 98.9121 9.0944 101.622C9.19993 102.517 9.50808 103.429 9.90488 104.239C11.0699 106.633 13.1384 107.57 15.7471 106.987C17.6424 106.565 19.2803 105.607 20.8252 104.476C21.4838 103.994 22.1001 103.45 22.7459 102.948C22.9823 102.766 23.0498 102.555 23.0498 102.26C23.0414 98.8657 23.0541 95.476 23.033 92.0821C23.0287 91.3223 23.1765 90.7778 24.3035 90.6427C27.651 90.2417 30.8507 91.7233 32.1297 95.0032C32.1508 95.0539 32.1762 95.1046 32.2353 95.2312C32.3999 94.9188 32.5308 94.6655 32.6701 94.4123C33.5861 92.7449 34.7511 91.3265 36.5705 90.592C37.668 90.1488 38.8077 89.9588 39.977 90.2375C42.0412 90.7313 43.3751 92.6604 43.1176 94.75C42.8686 96.7762 41.159 98.3 39.0906 98.3338C37.0264 98.3676 35.3083 96.8732 35.0002 94.7837C35.0002 94.7542 34.9833 94.7289 34.9495 94.6149C34.7891 94.8344 34.6414 95.0117 34.5232 95.2016C33.6367 96.6495 33.2273 98.2578 32.9571 99.9083C32.5139 102.606 32.5476 105.333 32.5476 108.055C32.5476 108.904 32.5476 109.752 32.5476 110.601C32.5476 111.453 32.2479 111.821 31.4037 111.964C30.1795 112.171 28.9638 112.061 27.7903 111.681C25.4939 110.934 23.9658 109.41 23.2778 107.076C23.2567 107.004 23.2314 106.937 23.206 106.865C23.206 106.857 23.1849 106.852 23.2145 106.865C22.3027 107.671 21.4415 108.515 20.496 109.25C17.6087 111.487 14.3372 112.589 10.6689 112.496C5.62876 112.374 1.31465 108.959 0.250891 104.125C-0.745323 99.6044 1.19223 93.3021 6.65452 91.107C10.5043 89.5578 14.3667 89.6676 18.0392 91.7529C19.5589 92.6182 20.6142 93.8973 20.8464 95.7166C21.1461 98.0679 19.3647 100.17 16.9712 100.284C14.5694 100.398 12.6023 98.49 12.6656 96.1176C12.6993 94.8386 13.227 93.8002 14.1937 92.9686C14.2696 92.9011 14.3456 92.8377 14.4934 92.7111L14.4807 92.7195Z" fill="#E1CBB3"/>
<path d="M180 101.403C179.911 104.957 178.388 107.895 175.454 109.985C171.271 112.965 166.72 113.357 162.072 111.234C158.607 109.651 156.315 106.954 155.627 103.121C155.006 99.6552 156.011 96.6117 158.404 94.0536C163.069 89.0641 171.254 88.7897 176.349 93.374C178.696 95.4846 179.937 98.1398 180 101.403ZM164.947 101.242C164.977 103.121 165.103 104.944 165.563 106.726C165.821 107.722 166.108 108.71 166.809 109.508C167.379 110.158 168.058 110.191 168.59 109.508C168.995 108.993 169.32 108.385 169.553 107.768C170.114 106.283 170.325 104.721 170.422 103.142C170.587 100.529 170.485 97.933 169.734 95.4087C169.51 94.6657 169.168 93.9312 168.742 93.2854C168.143 92.3862 167.298 92.4074 166.678 93.2854C166.365 93.7286 166.112 94.2309 165.926 94.7417C165.154 96.8523 165.002 99.06 164.951 101.234L164.947 101.242Z" fill="#E1CBB3"/>
<path d="M139.235 108.997C140.843 110.263 143.448 110.432 145.081 109.436C146.449 108.604 146.711 107.215 145.596 106.063C144.934 105.379 144.132 104.801 143.313 104.307C141.683 103.328 139.978 102.475 138.349 101.5C137.487 100.985 136.668 100.571 135.921 99.9001C133.372 97.6037 134.216 94.6699 135.744 92.9941C137.086 91.5251 138.834 90.8033 140.738 90.4445C143.937 89.8408 147.099 89.9506 150.181 91.0988C151.35 91.5336 152.401 92.1667 153.216 93.1418C154.178 94.3027 154.364 95.9701 153.676 97.2829C152.992 98.5873 151.595 99.3386 150.079 99.212C148.661 99.098 147.395 98.0976 146.968 96.7046C146.584 95.4509 146.795 94.2942 147.635 93.2727C147.699 93.1925 147.766 93.1165 147.834 93.0363C146.542 92.1499 144.756 92.2343 143.6 93.2263C142.574 94.1043 142.392 95.5733 143.308 96.5611C143.874 97.1731 144.558 97.7177 145.28 98.1356C147.049 99.1656 148.893 99.8663 150.666 100.896C151.531 101.403 152.359 102.011 153.102 102.682C155.255 104.624 154.917 107.102 153.608 108.955C152.578 110.415 151.101 111.281 149.425 111.758C145.563 112.851 141.7 112.847 137.91 111.424C136.17 110.774 134.697 109.744 133.815 108.034C132.608 105.704 133.891 102.931 136.365 102.509C137.935 102.243 139.476 102.994 140.227 104.396C140.97 105.78 140.742 107.498 139.649 108.655C139.539 108.773 139.4 108.862 139.239 108.993L139.235 108.997Z" fill="#E1CBB3"/>
<path d="M110.463 65.2267C110.969 64.4289 111.408 63.6268 111.953 62.905C113.232 61.2081 114.92 60.2203 117.086 60.0894C119.353 59.9544 121.387 61.6091 121.603 63.8168C121.826 66.1089 120.222 68.1816 118.023 68.4348C115.646 68.7092 113.658 67.1938 113.304 64.8426C113.299 64.813 113.287 64.7877 113.249 64.6821C113.088 64.9059 112.936 65.0832 112.818 65.2773C111.915 66.7548 111.493 68.3968 111.218 70.0811C110.758 72.8967 110.805 75.7418 110.8 78.5785C110.8 79.3974 110.8 80.2206 110.8 81.0395C110.796 81.85 110.488 82.2257 109.678 82.3776C108.631 82.5718 107.584 82.4958 106.558 82.2594C104.654 81.8246 103.139 80.8115 102.092 79.1399C102.062 79.0893 102.016 79.047 102.008 79.0344C101.172 79.7224 100.378 80.4612 99.5044 81.0775C97.8074 82.2763 95.929 82.4325 93.8099 82.3776C89.9897 82.2763 87.0137 79.2581 86.9968 75.4294C86.9841 72.5295 86.9968 70.1824 86.9968 67.2824C86.9968 66.2145 86.8997 65.1591 86.4438 64.1714C85.6165 62.3858 83.9659 62.3014 82.6109 62.8923C82.5138 62.9346 82.4421 63.0823 82.4041 63.192C82.3703 63.3018 82.3956 63.4327 82.3956 63.5551C82.3956 69.3129 82.3956 75.1551 82.3956 80.9086C82.3956 82.0104 82.1297 82.3649 81.0237 82.4916C77.0853 82.9517 73.6155 80.8326 72.8303 77.0757C72.7248 76.5734 72.691 76.05 72.6868 75.5392C72.6741 72.7743 72.6826 69.9249 72.6783 67.16C72.6783 66.1047 72.5644 65.0621 72.0916 64.1038C71.2093 62.3098 69.5462 62.3351 68.2629 62.905C68.1532 62.9557 68.0729 63.1921 68.0729 63.344C68.0561 64.3022 68.0645 65.2562 68.0645 66.2145C68.0645 71.1069 68.0645 75.9064 68.0645 80.7946C68.0645 81.812 67.7859 82.175 66.7728 82.3016C62.8724 82.7913 59.3308 80.7313 58.5118 76.9195C58.4021 76.4046 58.3725 75.8642 58.3683 75.3366C58.3556 70.8874 58.3641 66.5268 58.3641 62.0776C58.3641 61.1405 58.6849 60.7184 59.6051 60.6129C61.53 60.3934 63.3578 60.6931 65.0041 61.7822C65.2152 61.9215 65.3629 61.9679 65.6077 61.8244C68.2545 60.2794 71.1207 59.8615 74.1262 60.1865C75.9498 60.3807 77.6552 60.9084 79.1833 61.9594C79.2972 62.0354 79.5547 62.0101 79.6898 61.9341C83.5185 59.7433 87.5287 59.4731 91.6148 60.9843C94.232 61.951 95.9881 63.8337 96.5748 66.6492C96.6761 67.1347 96.7014 67.6455 96.7057 68.1436C96.7183 71.3011 96.7099 73.9056 96.7099 77.0673C96.7099 77.8102 96.9209 78.5321 97.6217 78.2872C98.9218 77.8313 99.9771 76.9871 100.978 76.0711C101.083 75.974 101.092 75.7418 101.092 75.5687C101.096 71.09 101.096 66.607 101.096 62.1283C101.096 61.1279 101.446 60.71 102.434 60.6044C105.992 60.2245 109.167 61.8708 110.391 65.1169C110.404 65.1549 110.433 65.1887 110.458 65.2225L110.463 65.2267Z" fill="#E1CBB3"/>
<path d="M117.44 82.5547C119.513 82.5547 121.193 80.8746 121.193 78.802C121.193 76.7295 119.513 75.0493 117.44 75.0493C115.368 75.0493 113.688 76.7295 113.688 78.802C113.688 80.8746 115.368 82.5547 117.44 82.5547Z" fill="#E1CBB3"/>
<path d="M98.2 0H81.7836C75.9794 0 71.2305 4.7489 71.2305 10.5531V41.9803C71.2305 47.7845 75.9794 52.5334 81.7836 52.5334H98.2C104.004 52.5334 108.753 47.7845 108.753 41.9803V10.5531C108.753 4.7489 104.004 0 98.2 0ZM87.1192 9.29518C87.3936 8.53958 88.432 7.20144 89.3101 7.56869L89.3438 7.5898C89.5676 7.74599 89.7069 8.03725 89.8335 8.2863C90.1965 9.03346 90.7537 9.75952 91.4925 10.2703C93.2991 11.6126 96.0894 11.3974 96.9843 13.7191C96.9843 13.7317 96.9927 13.7402 96.9927 13.7528C97.4866 15.4287 96.1105 17.0749 94.3671 16.9821C92.4633 16.8808 90.3569 15.7959 89.1497 14.6393C87.7313 13.2252 86.4438 11.1779 87.1235 9.29518H87.1192ZM80.2428 25.0404C78.7738 23.9007 78.8625 21.4777 80.2428 20.3C80.7367 19.861 81.3235 19.5697 81.7794 19.7048L81.8385 19.7217C82.1382 19.8187 82.3746 20.0594 82.5814 20.2957C83.5776 21.4946 84.806 22.7019 86.0639 23.6643C86.4861 23.9893 86.9251 24.3017 87.3725 24.593C87.381 24.5972 87.3852 24.6014 87.3936 24.6056C87.9213 24.9771 87.6638 25.8045 87.0179 25.7918H83.2695C82.1973 25.8003 81.2011 25.7032 80.2513 25.0404H80.2428ZM90.1037 45.028L82.3155 28.0206H97.8876L90.0994 45.028H90.1037ZM96.9885 25.6947C92.3916 25.4246 88.0944 23.3013 85.0339 19.8314C83.7211 18.392 82.6278 16.6655 83.185 14.6899C83.4172 13.9006 84.3374 12.6046 85.1521 13.107L85.1901 13.1365C85.5236 13.3982 85.7895 13.8626 86.0428 14.234C87.2965 16.1674 89.1708 17.6364 91.3067 18.4088C92.6913 18.9027 94.232 19.1687 95.6293 19.0589C95.8319 19.042 96.0345 19.004 96.2329 18.9534C98.0227 18.4848 99.1118 18.1134 100.416 20.072C100.707 20.4899 100.889 20.9627 100.978 21.4439C101.4 23.7909 99.3735 25.8382 96.9927 25.6989L96.9885 25.6947Z" fill="#E1CBB3"/>
<path d="M56.7656 125.32V120.229H57.5803V125.32H56.7656Z" fill="#E1CBB3"/>
<path d="M63.6337 123.374L64.4231 123.543C64.1403 124.738 63.1525 125.426 61.9537 125.426C60.472 125.426 59.3027 124.265 59.3027 122.775C59.3027 121.285 60.472 120.124 61.9537 120.124C63.1525 120.124 64.1361 120.825 64.4231 121.948L63.6337 122.176C63.4058 121.314 62.7515 120.892 61.9537 120.892C60.9279 120.892 60.1217 121.707 60.1217 122.775C60.1217 123.843 60.9279 124.662 61.9537 124.662C62.7515 124.662 63.4058 124.236 63.6337 123.379V123.374Z" fill="#E1CBB3"/>
<path d="M69.9411 125.32H66.1504V120.229H69.9368V120.968H66.9651V122.403H69.7089V123.134H66.9651V124.586H69.9453V125.325L69.9411 125.32Z" fill="#E1CBB3"/>
<path d="M78.4755 123.374L79.2649 123.543C78.9821 124.738 77.9943 125.426 76.7955 125.426C75.3138 125.426 74.1445 124.265 74.1445 122.775C74.1445 121.285 75.3138 120.124 76.7955 120.124C77.9943 120.124 78.9779 120.825 79.2649 121.948L78.4755 122.176C78.2476 121.314 77.5933 120.892 76.7955 120.892C75.7697 120.892 74.9635 121.707 74.9635 122.775C74.9635 123.843 75.7697 124.662 76.7955 124.662C77.5933 124.662 78.2476 124.236 78.4755 123.379V123.374Z" fill="#E1CBB3"/>
<path d="M84.3549 125.32L82.5398 123.29H81.801V125.32H80.9863V120.229H83.3798C84.4266 120.229 85.1274 120.846 85.1274 121.766C85.1274 122.686 84.49 123.235 83.5233 123.286L85.3638 125.325H84.3549V125.32ZM83.3798 122.555C83.9412 122.555 84.3127 122.235 84.3127 121.766C84.3127 121.297 83.9412 120.968 83.3798 120.968H81.7968V122.555H83.3798Z" fill="#E1CBB3"/>
<path d="M90.6461 125.32H86.8555V120.229H90.6419V120.968H87.6702V122.403H90.414V123.134H87.6702V124.586H90.6504V125.325L90.6461 125.32Z" fill="#E1CBB3"/>
<path d="M96.2476 125.32L95.7453 124.134H93.2674L92.7651 125.32H91.8828L94.1243 120.229H94.8841L97.1256 125.32H96.2434H96.2476ZM94.5084 121.226L93.5882 123.391H95.4287L94.5084 121.226Z" fill="#E1CBB3"/>
<path d="M104.102 125.32H103.313V121.952L101.51 125.32H101.122L99.3109 121.952V125.32H98.5215V120.229H99.2349L101.312 124.083L103.393 120.229H104.098V125.32H104.102Z" fill="#E1CBB3"/>
<path d="M114.276 125.32H113.486V121.952L111.684 125.32H111.296L109.485 121.952V125.32H108.695V120.229H109.409L111.486 124.083L113.567 120.229H114.272V125.32H114.276Z" fill="#E1CBB3"/>
<path d="M116.234 125.32V120.229H117.049V125.32H116.234Z" fill="#E1CBB3"/>
<path d="M120.873 123.303L119.514 125.325H118.518L120.253 122.771L118.534 120.234H119.531L120.877 122.235L122.215 120.234H123.212L121.485 122.771L123.224 125.325H122.228L120.873 123.303Z" fill="#E1CBB3"/>
</svg>
