<svg width="65" height="65" viewBox="0 0 65 65" fill="none" xmlns="http://www.w3.org/2000/svg">
<path d="M20.5 32.6582L22.7051 39.8467C26.6886 52.8321 28.6803 59.3249 32.5 59.3249C36.3197 59.3249 38.3115 52.8321 42.2949 39.8467L44.5 32.6582" stroke="#052F4E" stroke-width="4" stroke-linecap="round" stroke-linejoin="round"/>
<path d="M32.5026 23.7719C32.5026 25.3633 32.9418 26.857 33.7109 28.1491M33.7109 28.1491C31.7487 30.8736 28.4559 32.6608 24.7248 32.6608C18.7111 32.6608 13.8359 28.0179 13.8359 22.2904C13.8359 17.2682 17.5846 13.0797 22.5624 12.1245C24.2644 8.51105 28.0749 5.99414 32.5026 5.99414C38.0277 5.99414 42.5914 9.91299 43.297 14.9913M33.7109 28.1491C35.3143 30.8429 38.3522 32.6608 41.8359 32.6608C46.9906 32.6608 51.1693 28.6811 51.1693 23.7719C51.1693 19.3361 47.7575 15.6591 43.297 14.9913M43.297 14.9913C43.3594 15.4406 43.3914 15.899 43.3914 16.3645C43.3914 17.955 43.0154 19.4619 42.3437 20.809" stroke="#052F4E" stroke-width="4" stroke-linecap="round" stroke-linejoin="round"/>
</svg>
