<svg width="174" height="56" viewBox="0 0 174 56" fill="none" xmlns="http://www.w3.org/2000/svg">
<path d="M76.7853 36.617C77.424 37.6916 78.3321 38.2606 79.5308 38.3515C80.9898 38.4604 82.2915 37.967 83.472 37.18C84.2772 36.6442 85.0067 35.9964 85.7513 35.3789C85.8664 35.282 85.9451 35.0762 85.9451 34.9188C85.9572 32.4639 85.9541 30.012 85.9541 27.5571C85.9541 26.8972 86.1781 26.6005 86.8259 26.5279C88.179 26.3735 89.4625 26.5854 90.6188 27.3482C90.7641 27.4451 90.87 27.4784 91.0426 27.3785C92.9012 26.2948 94.9172 26.0012 97.027 26.2282C98.3074 26.3644 99.5061 26.7367 100.578 27.4753C100.656 27.5298 100.841 27.5117 100.935 27.4572C103.623 25.9164 106.441 25.7287 109.311 26.7882C111.148 27.4663 112.383 28.7921 112.795 30.7687C112.867 31.1108 112.886 31.468 112.886 31.8191C112.895 34.0379 112.889 36.2567 112.889 38.4756C112.889 38.9962 113.037 39.1143 113.53 38.9417C114.466 38.6118 115.219 38.0033 115.934 37.3404C115.988 37.289 115.973 37.1104 115.934 37.0135C115.244 35.2548 115.159 33.4719 115.822 31.7011C116.863 28.9253 118.925 27.212 121.74 26.4825C124.921 25.6591 127.833 26.3099 130.349 28.4712C133.672 31.3257 133.86 36.399 130.775 39.4926C127.322 42.9556 121.673 43.1402 118.001 39.9104C117.656 39.6077 117.299 39.3201 116.96 39.0386C116.5 39.4684 115.967 40.0345 115.365 40.5188C114.054 41.5752 112.583 42.2472 110.851 42.2018C108.166 42.1352 106.075 40.0133 106.063 37.3253C106.054 35.2881 106.063 33.2509 106.063 31.2107C106.063 30.46 105.996 29.7184 105.675 29.0252C105.1 27.778 103.947 27.7024 102.984 28.1231C102.912 28.1534 102.863 28.2745 102.836 28.3623C102.812 28.441 102.83 28.5318 102.83 28.6165C102.83 32.6485 102.83 36.6836 102.83 40.7156C102.83 41.4905 102.645 41.7387 101.87 41.8295C99.1036 42.1534 96.6638 40.6641 96.1128 38.0306C96.0402 37.6795 96.013 37.3102 96.0099 36.9499C96.0008 35.0096 96.0069 33.0663 96.0039 31.1259C96.0039 30.3843 95.9252 29.6548 95.5922 28.9768C94.9747 27.7205 93.8123 27.7326 92.9042 28.1292C92.8316 28.1625 92.771 28.3108 92.768 28.4077C92.7559 28.9616 92.7619 29.5186 92.7619 30.0725C92.7619 33.6353 92.7619 37.1982 92.7619 40.764C92.7619 41.4784 92.5652 41.7326 91.8568 41.8235C89.3838 42.1383 86.7896 40.9729 85.9753 38.0578C85.9178 38.1577 85.8754 38.2697 85.7967 38.3515C84.2015 40.0466 82.3399 41.327 80.0514 41.8901C77.8811 42.4258 75.7561 42.335 73.734 41.2907C69.4357 39.0749 68.0674 33.4658 70.8977 29.5519C72.8259 26.882 75.5079 25.8801 78.7256 26.2312C80.3481 26.4068 81.795 27.0213 82.9725 28.1837C84.8069 29.9969 84.5315 32.3277 83.1027 33.9925C82.0009 35.279 80.5267 35.9268 78.9163 36.287C78.3139 36.4202 77.6964 36.4747 77.085 36.5655C76.9942 36.5776 76.9033 36.5927 76.7792 36.6139L76.7853 36.617ZM122.2 34.1227C122.221 35.4728 122.315 36.7774 122.639 38.0578C122.817 38.7631 123.026 39.4593 123.507 40.0284C123.931 40.5279 124.428 40.5521 124.827 40.0375C125.109 39.6743 125.336 39.2475 125.499 38.8146C125.899 37.7491 126.053 36.6291 126.123 35.497C126.241 33.5718 126.174 31.6557 125.578 29.8001C125.408 29.2734 125.139 28.7588 124.812 28.3078C124.446 27.8023 123.901 27.8234 123.523 28.3259C123.262 28.668 123.05 29.0645 122.899 29.4671C122.339 30.9776 122.233 32.5638 122.197 34.1197L122.2 34.1227ZM76.1436 34.7402C78.3351 34.3316 79.9122 31.8343 79.3794 29.6639C79.2341 29.0736 78.995 28.5318 78.4834 28.1595C77.9749 27.7902 77.5239 27.8386 77.1425 28.329C76.973 28.5439 76.8367 28.7921 76.7247 29.0403C76.304 29.9726 76.1436 30.9716 76.0285 31.9796C75.9256 32.8967 75.9831 33.8079 76.1405 34.7402H76.1436Z" fill="#052F4E"/>
<path d="M48.8528 28.0143C47.7419 27.8175 46.97 28.2897 46.3736 29.0616C45.1568 30.6357 44.7633 32.4549 44.9903 34.3983C45.066 35.04 45.2869 35.6938 45.5715 36.275C46.4069 37.9913 47.8902 38.6633 49.7609 38.2456C51.12 37.9429 52.2945 37.2558 53.4024 36.4445C53.8746 36.0994 54.3166 35.709 54.7797 35.3487C54.9492 35.2186 54.9976 35.0672 54.9976 34.8553C54.9916 32.4216 55.0007 29.9909 54.9855 27.5572C54.9825 27.0123 55.0884 26.6218 55.8967 26.525C58.2971 26.2374 60.5916 27.2999 61.5088 29.6519C61.5239 29.6882 61.5421 29.7245 61.5845 29.8153C61.7025 29.5913 61.7963 29.4097 61.8962 29.2281C62.5531 28.0324 63.3886 27.0153 64.6932 26.4886C65.4802 26.1708 66.2975 26.0346 67.136 26.2344C68.6162 26.5885 69.5728 27.9719 69.3881 29.4703C69.2095 30.9232 67.9836 32.016 66.5003 32.0402C65.0201 32.0644 63.7881 30.9929 63.5672 29.4945C63.5672 29.4733 63.555 29.4551 63.5308 29.3734C63.4158 29.5308 63.3099 29.6579 63.2251 29.7942C62.5894 30.8324 62.2958 31.9857 62.1021 33.1693C61.7842 35.1036 61.8084 37.059 61.8084 39.0115C61.8084 39.6199 61.8084 40.2283 61.8084 40.8367C61.8084 41.4482 61.5935 41.7116 60.9881 41.8145C60.1103 41.9628 59.2385 41.8841 58.397 41.6117C56.7503 41.0759 55.6545 39.9831 55.1611 38.3092C55.146 38.2577 55.1278 38.2093 55.1096 38.1578C55.1096 38.1518 55.0945 38.1487 55.1157 38.1578C54.4618 38.736 53.8443 39.3414 53.1663 39.8681C51.0958 41.4724 48.7498 42.2625 46.1194 42.1959C42.5051 42.1081 39.4115 39.6592 38.6487 36.1933C37.9343 32.9513 39.3237 28.432 43.2407 26.8579C46.0013 25.747 48.771 25.8257 51.4046 27.3211C52.4943 27.9416 53.251 28.8588 53.4175 30.1634C53.6324 31.8495 52.355 33.357 50.6387 33.4387C48.9163 33.5204 47.5057 32.1522 47.5511 30.451C47.5754 29.5338 47.9537 28.7892 48.6469 28.1929C48.7014 28.1444 48.7559 28.099 48.8619 28.0082L48.8528 28.0143Z" fill="#052F4E"/>
<path d="M167.546 34.2411C167.483 36.7898 166.39 38.8967 164.286 40.395C161.286 42.5321 158.023 42.8136 154.69 41.291C152.205 40.1559 150.561 38.2216 150.068 35.4731C149.623 32.9879 150.344 30.8054 152.06 28.971C155.405 25.3931 161.274 25.1963 164.928 28.4837C166.611 29.9972 167.501 31.9012 167.546 34.2411ZM156.752 34.1261C156.773 35.4731 156.864 36.7808 157.194 38.0582C157.378 38.7726 157.584 39.4809 158.087 40.053C158.495 40.5191 158.983 40.5434 159.364 40.053C159.655 39.6837 159.888 39.2478 160.054 38.8059C160.457 37.7403 160.608 36.6203 160.678 35.4882C160.796 33.6145 160.723 31.7529 160.184 29.9427C160.024 29.41 159.779 28.8833 159.473 28.4201C159.043 27.7754 158.438 27.7905 157.993 28.4201C157.769 28.738 157.587 29.0982 157.454 29.4644C156.9 30.978 156.791 32.5611 156.755 34.12L156.752 34.1261Z" fill="#052F4E"/>
<path d="M138.316 39.686C139.469 40.5941 141.337 40.7152 142.508 40.0008C143.489 39.4045 143.677 38.4086 142.878 37.5822C142.402 37.0919 141.827 36.6772 141.24 36.323C140.071 35.6207 138.849 35.0093 137.68 34.31C137.063 33.9407 136.475 33.6441 135.94 33.1628C134.111 31.5161 134.717 29.4123 135.812 28.2106C136.775 27.1572 138.028 26.6395 139.393 26.3822C141.688 25.9494 143.955 26.0281 146.165 26.8514C147.003 27.1632 147.757 27.6173 148.341 28.3165C149.031 29.1489 149.165 30.3446 148.671 31.286C148.181 32.2214 147.179 32.7602 146.092 32.6694C145.075 32.5877 144.167 31.8702 143.861 30.8713C143.586 29.9723 143.737 29.1429 144.34 28.4104C144.385 28.3528 144.433 28.2984 144.482 28.2408C143.556 27.6052 142.275 27.6657 141.446 28.3771C140.71 29.0067 140.58 30.0601 141.237 30.7684C141.642 31.2073 142.133 31.5978 142.65 31.8975C143.919 32.6361 145.242 33.1386 146.513 33.8772C147.134 34.2404 147.727 34.6763 148.26 35.1576C149.803 36.55 149.561 38.3269 148.623 39.6558C147.884 40.7031 146.825 41.3237 145.623 41.6657C142.853 42.4497 140.084 42.4467 137.365 41.4266C136.118 40.9604 135.062 40.2218 134.429 38.9959C133.563 37.3249 134.484 35.3362 136.257 35.0335C137.383 34.8428 138.488 35.3816 139.027 36.3866C139.56 37.3794 139.396 38.6114 138.612 39.4408C138.534 39.5256 138.434 39.5892 138.319 39.683L138.316 39.686Z" fill="#052F4E"/>
<path d="M75.8264 8.30039C76.1896 7.72828 76.5044 7.15315 76.8949 6.63553C77.8121 5.41866 79.0229 4.71034 80.5758 4.6165C82.2013 4.51963 83.6603 5.70623 83.8147 7.28936C83.9752 8.93304 82.8249 10.4193 81.2478 10.6009C79.5436 10.7977 78.1179 9.71098 77.8636 8.02493C77.8606 8.00374 77.8515 7.98558 77.8242 7.90991C77.7092 8.07034 77.6002 8.19747 77.5155 8.33671C76.8677 9.39617 76.565 10.5737 76.3682 11.7815C76.0383 13.8005 76.0716 15.8407 76.0685 17.8749C76.0685 18.4621 76.0685 19.0524 76.0685 19.6396C76.0655 20.2208 75.8446 20.4902 75.2634 20.5992C74.5127 20.7384 73.762 20.684 73.0264 20.5144C71.6612 20.2027 70.5745 19.4762 69.8238 18.2775C69.8026 18.2411 69.7693 18.2109 69.7633 18.2018C69.1639 18.6952 68.5948 19.2249 67.9682 19.6669C66.7514 20.5266 65.4043 20.6385 63.8848 20.5992C61.1453 20.5265 59.0113 18.3622 58.9991 15.6167C58.9901 13.5371 58.9991 11.8541 58.9991 9.77455C58.9991 9.00871 58.9295 8.25196 58.6026 7.54363C58.0093 6.2632 56.8257 6.20266 55.8541 6.62644C55.7844 6.65671 55.733 6.76266 55.7057 6.84137C55.6815 6.92007 55.6997 7.01391 55.6997 7.10169C55.6997 11.2306 55.6997 15.42 55.6997 19.5458C55.6997 20.3359 55.509 20.5901 54.7159 20.6809C51.8917 21.0109 49.4035 19.4913 48.8404 16.7973C48.7648 16.437 48.7406 16.0617 48.7375 15.6954C48.7284 13.7127 48.7345 11.6695 48.7315 9.68677C48.7315 8.93001 48.6497 8.18233 48.3107 7.4952C47.6781 6.20871 46.4854 6.22688 45.5652 6.63553C45.4865 6.67185 45.429 6.84137 45.429 6.95034C45.4169 7.63747 45.4229 8.32158 45.4229 9.00871C45.4229 12.517 45.4229 15.9588 45.4229 19.4641C45.4229 20.1936 45.2231 20.4539 44.4967 20.5447C41.6997 20.8958 39.16 19.4187 38.5728 16.6853C38.4941 16.316 38.4729 15.9285 38.4698 15.5501C38.4608 12.3596 38.4668 9.23272 38.4668 6.04223C38.4668 5.37023 38.6969 5.06753 39.3568 4.99185C40.7371 4.83445 42.0478 5.04936 43.2283 5.83034C43.3797 5.93023 43.4856 5.96353 43.6612 5.86061C45.5591 4.75272 47.6145 4.45304 49.7697 4.68612C51.0774 4.82536 52.3003 5.20374 53.3961 5.95747C53.4778 6.01196 53.6625 5.99379 53.7594 5.93931C56.5049 4.36828 59.3806 4.17455 62.3107 5.25823C64.1875 5.95142 65.4467 7.30147 65.8675 9.3205C65.9401 9.6686 65.9583 10.0349 65.9613 10.3921C65.9704 12.6563 65.9643 14.524 65.9643 16.7912C65.9643 17.324 66.1157 17.8416 66.6182 17.666C67.5505 17.3391 68.3073 16.7337 69.0247 16.0768C69.1003 16.0072 69.1064 15.8407 69.1064 15.7166C69.1094 12.5049 69.1094 9.29023 69.1094 6.07855C69.1094 5.36115 69.3607 5.06147 70.069 4.9858C72.6208 4.71336 74.8971 5.89391 75.7749 8.22169C75.784 8.24893 75.8052 8.27315 75.8234 8.29736L75.8264 8.30039Z" fill="#052F4E"/>
<path d="M80.8277 20.7258C82.314 20.7258 83.5188 19.521 83.5188 18.0348C83.5188 16.5486 82.314 15.3438 80.8277 15.3438C79.3415 15.3438 78.1367 16.5486 78.1367 18.0348C78.1367 19.521 79.3415 20.7258 80.8277 20.7258Z" fill="#E1CBB3"/>
<path d="M25.5116 4.58008H13.7394C9.55999 4.58008 6.17188 7.96819 6.17188 12.1476V34.6839C6.17188 38.8633 9.55999 42.2514 13.7394 42.2514H25.5116C29.691 42.2514 33.0791 38.8633 33.0791 34.6839V12.1476C33.0791 7.96819 29.691 4.58008 25.5116 4.58008Z" fill="#052F4E"/>
<path d="M14.1211 24.6719L19.706 36.8678L25.2878 24.6719H14.1211Z" fill="#E1CBB3"/>
<path d="M14.7999 23.0744C14.031 23.0805 13.3166 23.0108 12.6355 22.5356C11.5821 21.7183 11.6457 19.9808 12.6355 19.1362C12.9897 18.8214 13.4105 18.6126 13.7374 18.7094L13.7798 18.7215C13.9916 18.7912 14.1642 18.9637 14.3125 19.1332C15.0269 19.9929 15.9078 20.8586 16.8098 21.5488C17.1125 21.7819 17.4273 22.0059 17.7482 22.2147C17.7542 22.2178 17.7573 22.2208 17.7633 22.2238C18.1417 22.4902 17.9571 23.0835 17.4939 23.0744H14.8059H14.7999Z" fill="#E1CBB3"/>
<path d="M16.1841 13.9973C16.4233 14.185 16.614 14.518 16.7956 14.7843C17.6946 16.1707 19.0386 17.2241 20.5703 17.7781C21.5632 18.1322 22.668 18.3229 23.67 18.2442C23.8153 18.2321 23.9606 18.2049 24.1028 18.1686C25.3863 17.8326 26.1673 17.5662 27.1026 18.9707C27.3115 19.2704 27.4416 19.6094 27.5052 19.9545C27.8079 21.6375 26.3549 23.1056 24.6477 23.0057C21.3513 22.812 18.2698 21.2894 16.0752 18.8012C15.1338 17.769 14.3498 16.5309 14.7493 15.1143C14.9158 14.5482 15.5757 13.6189 16.1599 13.9792L16.1872 14.0003L16.1841 13.9973Z" fill="#E1CBB3"/>
<path d="M19.1579 10.0248C19.3183 10.1368 19.4182 10.3457 19.509 10.5243C19.7694 11.0601 20.1689 11.5807 20.6987 11.947C21.9942 12.9096 23.9951 12.7552 24.6368 14.4201C24.6368 14.4291 24.6429 14.4352 24.6429 14.4443C24.997 15.646 24.0102 16.8265 22.7601 16.76C21.3949 16.6873 19.8844 15.9094 19.0187 15.08C18.0016 14.0659 17.0783 12.5978 17.5657 11.2477C17.7625 10.7059 18.5071 9.74633 19.1367 10.0097L19.1609 10.0248H19.1579Z" fill="#E1CBB3"/>
<path d="M119.891 51.426V47.7754H120.475V51.426H119.891Z" fill="#052F4E"/>
<path d="M124.819 50.03L125.385 50.1511C125.182 51.0078 124.474 51.5012 123.614 51.5012C122.551 51.5012 121.713 50.6687 121.713 49.6002C121.713 48.5317 122.551 47.6992 123.614 47.6992C124.474 47.6992 125.179 48.2017 125.385 49.0069L124.819 49.1704C124.655 48.5528 124.186 48.2501 123.614 48.2501C122.878 48.2501 122.3 48.8344 122.3 49.6002C122.3 50.366 122.878 50.9533 123.614 50.9533C124.186 50.9533 124.655 50.6475 124.819 50.0331V50.03Z" fill="#052F4E"/>
<path d="M129.341 51.426H126.623V47.7754H129.338V48.3051H127.207V49.3343H129.175V49.858H127.207V50.8993H129.344V51.429L129.341 51.426Z" fill="#052F4E"/>
<path d="M135.459 50.03L136.025 50.1511C135.822 51.0078 135.114 51.5012 134.254 51.5012C133.192 51.5012 132.354 50.6687 132.354 49.6002C132.354 48.5317 133.192 47.6992 134.254 47.6992C135.114 47.6992 135.819 48.2017 136.025 49.0069L135.459 49.1704C135.296 48.5528 134.827 48.2501 134.254 48.2501C133.519 48.2501 132.941 48.8344 132.941 49.6002C132.941 50.366 133.519 50.9533 134.254 50.9533C134.827 50.9533 135.296 50.6475 135.459 50.0331V50.03Z" fill="#052F4E"/>
<path d="M139.675 51.426L138.374 49.97H137.844V51.426H137.26V47.7754H138.976C139.727 47.7754 140.229 48.2173 140.229 48.8772C140.229 49.5371 139.772 49.9306 139.079 49.967L140.399 51.429H139.675V51.426ZM138.979 49.4433C139.382 49.4433 139.648 49.2132 139.648 48.8772C139.648 48.5412 139.382 48.3051 138.979 48.3051H137.844V49.4433H138.979Z" fill="#052F4E"/>
<path d="M144.189 51.426H141.471V47.7754H144.186V48.3051H142.055V49.3343H144.022V49.858H142.055V50.8993H144.192V51.429L144.189 51.426Z" fill="#052F4E"/>
<path d="M148.202 51.426L147.842 50.5754H146.065L145.705 51.426H145.072L146.68 47.7754H147.224L148.832 51.426H148.199H148.202ZM146.955 48.4898L146.295 50.0426H147.615L146.955 48.4898Z" fill="#052F4E"/>
<path d="M153.84 51.426H153.274V49.0104L151.981 51.426H151.703L150.404 49.0104V51.426H149.838V47.7754H150.349L151.839 50.5391L153.331 47.7754H153.837V51.426H153.84Z" fill="#052F4E"/>
<path d="M161.135 51.426H160.568V49.0104L159.276 51.426H158.997L157.699 49.0104V51.426H157.133V47.7754H157.644L159.134 50.5391L160.626 47.7754H161.132V51.426H161.135Z" fill="#052F4E"/>
<path d="M162.539 51.426V47.7754H163.123V51.426H162.539Z" fill="#052F4E"/>
<path d="M165.863 49.976L164.888 51.426H164.174L165.418 49.5946L164.186 47.7754H164.9L165.866 49.2102L166.826 47.7754H167.54L166.302 49.5946L167.549 51.426H166.835L165.863 49.976Z" fill="#052F4E"/>
</svg>
