<svg width="144" height="80" viewBox="0 0 144 80" fill="none" xmlns="http://www.w3.org/2000/svg">
<path d="M26.1562 59.1068V54.8945H29.2306V55.7608H27.0904V56.7629H29.0947V57.5952H27.0904V59.1068H26.1562Z" fill="#FEFEFE"/>
<path d="M33.4082 54.8789V59.1082H32.457V54.8789H33.4082Z" fill="#FEFEFE"/>
<path d="M37.7909 55.7282H36.5V54.8789C37.7399 54.8789 38.776 54.8789 40.0159 54.8789V55.7282H38.7251V59.1082H37.7909V55.7282Z" fill="#FEFEFE"/>
<path d="M46.0634 57.6305L45.9955 56.3057V54.8789H46.9467V59.1082H46.1484L44.0422 56.4076L44.0762 57.8004V59.1082H43.125V54.8789H43.9233L46.0634 57.6305Z" fill="#FEFEFE"/>
<path d="M53.6399 59.1082H50.4297C50.4297 57.6984 50.4297 56.2887 50.4297 54.8789H53.555V55.7452H51.3469V56.5604H53.4361V57.3927H51.3469V58.242H53.6399V59.1082Z" fill="#FEFEFE"/>
<path d="M59.4133 55.8972C59.1755 55.6594 58.7678 55.5575 58.4451 55.5575C58.0205 55.5575 57.6808 55.7273 57.6808 56.0161C57.6808 56.4067 58.0545 56.4747 58.598 56.5256C59.4303 56.5936 60.2116 56.9163 60.2116 57.8844C60.2116 58.8356 59.3453 59.2432 58.4451 59.2432C57.7148 59.2602 56.9504 58.9715 56.5938 58.377L57.1543 57.7995C57.477 58.2072 58.0205 58.394 58.4451 58.394C58.9377 58.394 59.2944 58.1902 59.2944 57.8844C59.2944 57.5278 59.0056 57.3749 58.4451 57.3239C57.5449 57.239 56.7466 57.0182 56.7636 56.0161C56.7636 55.1838 57.5619 54.7422 58.4281 54.7422C59.0906 54.7422 59.5661 54.8781 60.0078 55.3876L59.4133 55.8972Z" fill="#FEFEFE"/>
<path d="M65.9029 55.8972C65.6651 55.6594 65.2575 55.5575 64.9178 55.5575C64.5101 55.5575 64.1704 55.7273 64.1704 56.0161C64.1704 56.4067 64.5271 56.4747 65.0707 56.5256C65.9029 56.5936 66.7012 56.9163 66.7012 57.8844C66.7012 58.8356 65.835 59.2432 64.9178 59.2432C64.1874 59.2602 63.4231 58.9715 63.0664 58.377L63.6439 57.7995C63.9666 58.2072 64.4932 58.394 64.9348 58.394C65.4273 58.394 65.767 58.1902 65.767 57.8844C65.784 57.5278 65.4953 57.3749 64.9178 57.3239C64.0346 57.239 63.2363 57.0182 63.2363 56.0161C63.2532 55.1838 64.0515 54.7422 64.9178 54.7422C65.5632 54.7422 66.0558 54.8781 66.4974 55.3876L65.9029 55.8972Z" fill="#FEFEFE"/>
<path d="M77.4834 58.5976C77.0417 59.0223 76.4812 59.2261 75.8528 59.2261C74.2562 59.2261 73.6107 58.173 73.5938 57.035C73.5938 55.931 74.3071 54.793 75.8528 54.793C76.4303 54.793 76.9738 55.0138 77.4154 55.4384L76.8209 56.0329C76.5661 55.7781 76.1925 55.6762 75.8528 55.6762C74.9016 55.6762 74.5279 56.4235 74.5279 57.035C74.5449 57.6465 74.8676 58.3429 75.8528 58.3429C76.1925 58.3429 76.6511 58.19 76.9059 57.9522L77.4834 58.5976Z" fill="#FEFEFE"/>
<path d="M83.8053 59.1082H80.5781C80.5781 57.6984 80.5781 56.2887 80.5781 54.8789H83.7204V55.7452H81.5123V56.5604H83.5845V57.3927H81.5123V58.242H83.8053V59.1082Z" fill="#FEFEFE"/>
<path d="M90.0205 57.6305L89.9525 56.3057V54.8789H90.9037V59.1082H90.0884L87.9992 56.4076L88.0332 57.8004V59.1082H87.082V54.8789H87.8803L90.0205 57.6305Z" fill="#FEFEFE"/>
<path d="M95.2856 55.7282H94.0117V54.8789C95.2346 54.8789 96.2707 54.8789 97.5107 54.8789V55.7282H96.2368V59.1082H95.2856V55.7282Z" fill="#FEFEFE"/>
<path d="M103.844 59.1082H100.617C100.617 57.6984 100.617 56.2887 100.617 54.8789H103.759V55.7452H101.551V56.5604H103.624V57.3927H101.551V58.242H103.844V59.1082Z" fill="#FEFEFE"/>
<path d="M110.859 59.1082H109.823L108.736 57.7154H108.057V59.1082H107.105V54.8789C107.802 54.8789 108.43 54.8789 109.11 54.8789C110.129 54.8789 110.672 55.5753 110.672 56.3057C110.672 56.8662 110.519 57.3418 109.704 57.6305L110.859 59.0403V59.1082ZM108.057 55.6942V56.9171H109.127C109.568 56.9171 109.755 56.5944 109.755 56.3226C109.738 56.0339 109.551 55.6942 109.11 55.6942H108.057Z" fill="#FEFEFE"/>
<path d="M19.5308 36.5863C22.3504 36.5523 24.7623 38.9302 24.7113 41.7668C24.7623 44.5863 22.3504 46.9812 19.5308 46.9472H11.6667V50.2933H6.31641V36.5863H19.5308ZM18.206 42.9218C18.5231 42.9218 18.7948 42.8085 19.0213 42.5821C19.2478 42.3556 19.361 42.0838 19.361 41.7668C19.361 41.4384 19.2478 41.161 19.0213 40.9345C18.8005 40.6967 18.5117 40.5948 18.206 40.5948H11.6667V42.9218H18.206Z" fill="#FEFEFE"/>
<path d="M31.5066 45.5894V50.2773H26.1562V36.5703H31.5066V41.2412H39.5405V36.5703H44.8909V50.2773H39.5405V45.5894H31.5066Z" fill="#FEFEFE"/>
<path d="M65.5108 42.9226V43.9247C65.5278 49.1052 61.2985 50.5999 56.152 50.6169C50.9885 50.5999 46.7592 49.1052 46.7932 43.9247V42.9226C46.7592 37.7252 50.9885 36.2305 56.152 36.2305C61.3155 36.2305 65.5108 37.7422 65.5108 42.9226ZM60.1605 43.2453C60.1944 41.0033 58.3431 40.5957 56.152 40.5787C53.9609 40.5957 52.1095 41.0033 52.1265 43.2453V43.585C52.1095 45.8271 53.9609 46.2347 56.152 46.2687C58.3431 46.2347 60.1944 45.8271 60.1605 43.585V43.2453Z" fill="#FEFEFE"/>
<path d="M67.0898 36.5859H83.1238V40.0849H72.4232V41.8513H83.1238V45.0106H72.4232V46.777H83.1238V50.2929H67.0898V36.5859Z" fill="#FEFEFE"/>
<path d="M99.3452 36.5703H104.696V50.2773H98.6828L91.3113 41.9036V50.2773H85.9609V36.5703H93.3155L99.3452 43.823V36.5703Z" fill="#FEFEFE"/>
<path d="M113.151 36.5703V50.2773H107.801V36.5703H113.151Z" fill="#FEFEFE"/>
<path d="M128.32 36.5859H135.012L127.81 43.431L135.012 50.2929H128.32L124.481 46.2845L120.626 50.2929H113.934L121.135 43.431L113.934 36.5859H120.626L124.481 40.5774L128.32 36.5859Z" fill="#FEFEFE"/>
<path d="M64.9519 20.604L70.6759 27.9076L76.4678 20.519C75.4996 21.1475 74.0219 21.674 71.7289 21.8778L77.5209 16.9182L76.5697 14.88L72.748 6.77806L70.6759 2.37891L68.6037 6.79504L64.765 14.897L63.7969 16.9522L69.5718 21.8778C67.3807 21.674 65.92 21.1984 64.9519 20.604Z" fill="url(#paint0_linear_25_502)"/>
<path d="M109.757 15.0313C111.506 15.303 113.272 15.5578 115.022 15.7786C115.922 15.8805 118.045 16.1183 119.982 16.3222L138.36 6.75952C131.362 7.16716 107.328 8.33914 91.7013 6.64062L72.7969 30.7425L85.9094 25.2054L90.4954 31.6767L99.4296 27.0228C97.9179 26.0716 96.4402 25.0865 94.9625 24.0844C93.23 22.9124 91.5485 21.6895 89.8669 20.4495C91.6334 21.5536 93.4168 22.6406 95.2343 23.6767C96.9328 24.6619 98.6652 25.596 100.398 26.5132L107.803 22.6576C106.773 22.2613 105.748 21.8536 104.729 21.4347C102.996 20.7383 101.264 20.0079 99.5655 19.2266C97.85 18.4793 96.1684 17.664 94.4869 16.8487C96.2364 17.5111 97.9858 18.1735 99.7353 18.785C101.502 19.3965 103.268 19.974 105.052 20.5175C106.512 20.9761 107.973 21.4007 109.451 21.8083L117.298 17.7149C116.466 17.5451 115.616 17.3922 114.767 17.2054C113.035 16.8317 111.285 16.4241 109.57 15.9824C107.837 15.5408 106.122 15.0822 104.406 14.5897C102.691 14.0971 100.992 13.5706 99.3107 13.027C101.043 13.4177 102.776 13.7914 104.525 14.1141C106.258 14.4538 108.007 14.7425 109.757 15.0313Z" fill="url(#paint1_linear_25_502)"/>
<path d="M50.1386 7.15234C34.5123 8.85086 10.4783 7.67888 3.48047 7.27124L21.8584 16.8339C23.7947 16.63 25.9178 16.3923 26.818 16.2903C28.5675 16.0695 30.334 15.8148 32.0834 15.543C33.8329 15.2543 35.5824 14.9655 37.3149 14.6258C39.0643 14.3031 40.7968 13.9294 42.5293 13.5388C40.8478 14.0823 39.1493 14.6088 37.4338 15.1014C35.7183 15.594 34.0028 16.0526 32.2703 16.4942C30.5548 16.9358 28.8053 17.3434 27.0728 17.7171C26.2236 17.9039 25.3743 18.0568 24.5251 18.2266L32.3892 22.3201C33.8669 21.9124 35.3276 21.4878 36.7883 21.0292C38.5718 20.4857 40.3382 19.9082 42.1047 19.2967C43.8541 18.6853 45.6036 18.0228 47.3531 17.3604C45.6716 18.1757 43.99 18.991 42.2745 19.7383C40.576 20.5196 38.8435 21.25 37.111 21.9464C36.0919 22.3654 35.0672 22.773 34.0367 23.1693L41.4423 27.025C43.1747 26.1078 44.9072 25.1736 46.6057 24.1884C48.4231 23.1523 50.2066 22.0653 51.973 20.9613C50.2915 22.2012 48.593 23.4241 46.8775 24.5961C45.3998 25.5982 43.9051 26.5833 42.4104 27.5345L51.3446 32.1884L55.9306 25.7171L68.9752 31.1693L50.1386 7.15234Z" fill="url(#paint2_linear_25_502)"/>
<path d="M59.7188 64.5273L70.6572 78.608L81.6126 64.5273L70.6572 68.1622L59.7188 64.5273Z" fill="url(#paint3_linear_25_502)"/>
<defs>
<linearGradient id="paint0_linear_25_502" x1="46.9276" y1="91.7634" x2="46.9276" y2="8.44668" gradientUnits="userSpaceOnUse">
<stop stop-color="#F47F35"/>
<stop offset="1" stop-color="#EE493C"/>
</linearGradient>
<linearGradient id="paint1_linear_25_502" x1="100.794" y1="91.2523" x2="100.794" y2="7.93558" gradientUnits="userSpaceOnUse">
<stop stop-color="#F47F35"/>
<stop offset="1" stop-color="#EE493C"/>
</linearGradient>
<linearGradient id="paint2_linear_25_502" x1="31.449" y1="91.764" x2="31.449" y2="8.44729" gradientUnits="userSpaceOnUse">
<stop stop-color="#F47F35"/>
<stop offset="1" stop-color="#EE493C"/>
</linearGradient>
<linearGradient id="paint3_linear_25_502" x1="66.1379" y1="85.8413" x2="66.1379" y2="64.4426" gradientUnits="userSpaceOnUse">
<stop stop-color="#F47F35"/>
<stop offset="1" stop-color="#EE493C"/>
</linearGradient>
</defs>
</svg>
