<svg width="250" height="250" viewBox="0 0 250 250" fill="none" xmlns="http://www.w3.org/2000/svg">
<g clip-path="url(#clip0_185_1734)">
<rect width="250" height="250" fill="#FEFEFE"/>
<path d="M45.4531 157.714V150.395H50.7955V151.9H47.0765V153.641H50.5594V155.088H47.0765V157.714H45.4531Z" fill="#010101"/>
<path d="M58.0591 150.367V157.717H56.4062V150.367H58.0591Z" fill="#010101"/>
<path d="M65.669 151.843H63.4258V150.367C65.5804 150.367 67.3809 150.367 69.5356 150.367V151.843H67.2924V157.717H65.669V151.843Z" fill="#010101"/>
<path d="M80.0438 155.149L79.9257 152.847V150.367H81.5786V157.717H80.1913L76.5314 153.024L76.5904 155.444V157.717H74.9375V150.367H76.3248L80.0438 155.149Z" fill="#010101"/>
<path d="M93.2113 157.717H87.6328C87.6328 155.267 87.6328 152.817 87.6328 150.367H93.0637V151.873H89.2267V153.289H92.8571V154.736H89.2267V156.211H93.2113V157.717Z" fill="#010101"/>
<path d="M103.243 152.14C102.83 151.727 102.122 151.55 101.561 151.55C100.823 151.55 100.233 151.845 100.233 152.347C100.233 153.025 100.882 153.143 101.827 153.232C103.273 153.35 104.631 153.911 104.631 155.593C104.631 157.246 103.125 157.955 101.561 157.955C100.292 157.984 98.9636 157.482 98.3438 156.449L99.3178 155.446C99.8786 156.154 100.823 156.479 101.561 156.479C102.417 156.479 103.037 156.125 103.037 155.593C103.037 154.973 102.535 154.708 101.561 154.619C99.9966 154.472 98.6094 154.088 98.6389 152.347C98.6389 150.9 100.026 150.133 101.531 150.133C102.683 150.133 103.509 150.369 104.276 151.254L103.243 152.14Z" fill="#010101"/>
<path d="M114.523 152.14C114.11 151.727 113.401 151.55 112.811 151.55C112.103 151.55 111.512 151.845 111.512 152.347C111.512 153.025 112.132 153.143 113.077 153.232C114.523 153.35 115.91 153.911 115.91 155.593C115.91 157.246 114.405 157.955 112.811 157.955C111.542 157.984 110.214 157.482 109.594 156.449L110.597 155.446C111.158 156.154 112.073 156.479 112.841 156.479C113.696 156.479 114.287 156.125 114.287 155.593C114.316 154.973 113.815 154.708 112.811 154.619C111.276 154.472 109.889 154.088 109.889 152.347C109.918 150.9 111.306 150.133 112.811 150.133C113.933 150.133 114.789 150.369 115.556 151.254L114.523 152.14Z" fill="#010101"/>
<path d="M134.65 156.834C133.882 157.572 132.908 157.926 131.816 157.926C129.042 157.926 127.92 156.096 127.891 154.119C127.891 152.2 129.13 150.223 131.816 150.223C132.82 150.223 133.764 150.606 134.532 151.344L133.499 152.377C133.056 151.935 132.407 151.757 131.816 151.757C130.163 151.757 129.514 153.056 129.514 154.119C129.544 155.181 130.104 156.391 131.816 156.391C132.407 156.391 133.203 156.126 133.646 155.713L134.65 156.834Z" fill="#010101"/>
<path d="M145.635 157.717H140.027C140.027 155.267 140.027 152.817 140.027 150.367H145.488V151.873H141.651V153.289H145.252V154.736H141.651V156.211H145.635V157.717Z" fill="#010101"/>
<path d="M156.43 155.149L156.312 152.847V150.367H157.965V157.717H156.549L152.918 153.024L152.977 155.444V157.717H151.324V150.367H152.711L156.43 155.149Z" fill="#010101"/>
<path d="M165.581 151.843H163.367V150.367C165.492 150.367 167.293 150.367 169.447 150.367V151.843H167.234V157.717H165.581V151.843Z" fill="#010101"/>
<path d="M180.452 157.717H174.844C174.844 155.267 174.844 152.817 174.844 150.367H180.304V151.873H176.467V153.289H180.068V154.736H176.467V156.211H180.452V157.717Z" fill="#010101"/>
<path d="M192.644 157.717H190.844L188.955 155.296H187.774V157.717H186.121V150.367C187.331 150.367 188.423 150.367 189.604 150.367C191.375 150.367 192.319 151.577 192.319 152.847C192.319 153.821 192.054 154.647 190.637 155.149L192.644 157.599V157.717ZM187.774 151.784V153.909H189.633C190.401 153.909 190.726 153.348 190.726 152.876C190.696 152.374 190.371 151.784 189.604 151.784H187.774Z" fill="#010101"/>
<path d="M33.94 118.583C38.8396 118.524 43.0309 122.656 42.9423 127.585C43.0309 132.485 38.8396 136.646 33.94 136.587H20.2741V142.402H10.9766V118.583H33.94ZM31.6377 129.592C32.1887 129.592 32.6609 129.395 33.0545 129.002C33.448 128.608 33.6448 128.136 33.6448 127.585C33.6448 127.014 33.448 126.532 33.0545 126.139C32.6708 125.726 32.169 125.548 31.6377 125.548H20.2741V129.592H31.6377Z" fill="#010101"/>
<path d="M54.7585 134.228V142.374H45.4609V118.555H54.7585V126.672H68.7195V118.555H78.017V142.374H68.7195V134.228H54.7585Z" fill="#010101"/>
<path d="M113.843 129.586V131.328C113.873 140.33 106.523 142.928 97.58 142.957C88.6072 142.928 81.2577 140.33 81.3168 131.328V129.586C81.2577 120.554 88.6072 117.957 97.58 117.957C106.553 117.957 113.843 120.584 113.843 129.586ZM104.546 130.147C104.605 126.251 101.388 125.543 97.58 125.513C93.7725 125.543 90.5552 126.251 90.5848 130.147V130.737C90.5552 134.634 93.7725 135.342 97.58 135.401C101.388 135.342 104.605 134.634 104.546 130.737V130.147Z" fill="#010101"/>
<path d="M116.582 118.582H144.445V124.662H125.85V127.732H144.445V133.222H125.85V136.292H144.445V142.401H116.582V118.582Z" fill="#010101"/>
<path d="M172.634 118.555H181.931V142.374H171.482L158.673 127.823V142.374H149.375V118.555H162.155L172.634 131.158V118.555Z" fill="#010101"/>
<path d="M196.626 118.555V142.374H187.328V118.555H196.626Z" fill="#010101"/>
<path d="M222.992 118.582H234.621L222.107 130.477L234.621 142.401H222.992L216.322 135.436L209.621 142.401H197.992L210.507 130.477L197.992 118.582H209.621L216.322 125.518L222.992 118.582Z" fill="#010101"/>
<path d="M112.863 90.7995L122.809 103.491L132.874 90.6519C131.192 91.744 128.624 92.659 124.639 93.0132L134.704 84.3945L133.051 80.8526L126.41 66.7735L122.809 59.1289L119.208 66.803L112.538 80.8822L110.855 84.4536L120.891 93.0132C117.083 92.659 114.545 91.8326 112.863 90.7995Z" fill="url(#paint0_linear_185_1734)"/>
<path d="M190.723 81.1199C193.763 81.5922 196.833 82.0349 199.873 82.4186C201.437 82.5957 205.127 83.009 208.491 83.3631L240.428 66.7457C228.267 67.4541 186.502 69.4907 159.347 66.5391L126.496 108.422L149.282 98.8L157.252 110.046L172.777 101.958C170.15 100.305 167.582 98.5934 165.014 96.8519C162.004 94.8153 159.082 92.6902 156.16 90.5355C159.229 92.4541 162.328 94.3431 165.487 96.1435C168.438 97.8555 171.449 99.4788 174.459 101.073L187.328 94.3726C185.538 93.6839 183.757 92.9755 181.986 92.2474C178.975 91.0373 175.965 89.7681 173.013 88.4104C170.032 87.1117 167.11 85.6949 164.188 84.2781C167.228 85.4293 170.268 86.5804 173.308 87.643C176.378 88.7055 179.448 89.7091 182.547 90.6536C185.085 91.4505 187.624 92.1884 190.192 92.8968L203.828 85.7834C202.382 85.4883 200.906 85.2226 199.43 84.898C196.419 84.2486 193.379 83.5402 190.398 82.7728C187.387 82.0054 184.406 81.2085 181.425 80.3525C178.444 79.4966 175.493 78.5816 172.57 77.6371C175.581 78.3159 178.592 78.9653 181.632 79.5261C184.643 80.1164 187.683 80.6182 190.723 81.1199Z" fill="url(#paint1_linear_185_1734)"/>
<path d="M87.1233 67.4258C59.9686 70.3774 18.2035 68.3408 6.04297 67.6324L37.9792 84.2499C41.344 83.8957 45.0335 83.4824 46.5979 83.3054C49.638 82.9216 52.7077 82.4789 55.7478 82.0067C58.788 81.5049 61.8281 81.0031 64.8387 80.4128C67.8789 79.852 70.8895 79.2026 73.9001 78.5238C70.978 79.4683 68.0264 80.3833 65.0453 81.2392C62.0642 82.0952 59.0831 82.8921 56.0725 83.6595C53.0914 84.427 50.0512 85.1353 47.0406 85.7847C45.5648 86.1094 44.089 86.375 42.6132 86.6702L56.2791 93.7835C58.847 93.0751 61.3854 92.3372 63.9237 91.5403C67.0229 90.5958 70.0926 89.5922 73.1622 88.5297C76.2024 87.4671 79.2425 86.316 82.2826 85.1649C79.3606 86.5816 76.4385 87.9984 73.4574 89.2971C70.5058 90.6548 67.4952 91.924 64.4845 93.1342C62.7136 93.8622 60.9328 94.5706 59.1421 95.2593L72.0111 101.959C75.0217 100.366 78.0323 98.7422 80.9839 97.0303C84.1421 95.2298 87.2413 93.3408 90.311 91.4222C87.3889 93.5769 84.4373 95.702 81.4562 97.7386C78.8883 99.4801 76.2909 101.192 73.6935 102.845L89.2189 110.932L97.1882 99.6867L119.856 109.161L87.1233 67.4258Z" fill="url(#paint2_linear_185_1734)"/>
<path d="M103.77 167.129L122.778 191.598L141.816 167.129L122.778 173.445L103.77 167.129Z" fill="url(#paint3_linear_185_1734)"/>
</g>
<defs>
<linearGradient id="paint0_linear_185_1734" x1="81.5408" y1="214.457" x2="81.5408" y2="69.6732" gradientUnits="userSpaceOnUse">
<stop stop-color="#F47F35"/>
<stop offset="1" stop-color="#EE493C"/>
</linearGradient>
<linearGradient id="paint1_linear_185_1734" x1="175.148" y1="213.573" x2="175.148" y2="68.7894" gradientUnits="userSpaceOnUse">
<stop stop-color="#F47F35"/>
<stop offset="1" stop-color="#EE493C"/>
</linearGradient>
<linearGradient id="paint2_linear_185_1734" x1="54.6454" y1="214.46" x2="54.6454" y2="69.6761" gradientUnits="userSpaceOnUse">
<stop stop-color="#F47F35"/>
<stop offset="1" stop-color="#EE493C"/>
</linearGradient>
<linearGradient id="paint3_linear_185_1734" x1="114.924" y1="204.167" x2="114.924" y2="166.982" gradientUnits="userSpaceOnUse">
<stop stop-color="#F47F35"/>
<stop offset="1" stop-color="#EE493C"/>
</linearGradient>
<clipPath id="clip0_185_1734">
<rect width="250" height="250" fill="white"/>
</clipPath>
</defs>
</svg>
